P2
13 13
255
131
131 131 131 131 131 131 131 131 131 131 131 131 135 135 92 127 162
162 84 49 92 127 127 135 135 139 26 88 127 166 166 189 88 26
127 127 139 139 143 4 127 127 127 127 250 127 4 127 127 143 143
147 8 127 127 127 127 246 127 8 127 127 147 147 151 0 127 127
127 127 255 127 0 127 127 151 151 143 4 127 127 127 154 224 100
30 127 127 143 143 147 43 80 127 174 181 111 73 96 127 127 147
147 151 143 76 127 178 111 33 100 127 127 127 151 151 131 213 127
127 88 41 80 127 127 127 127 131 131 135 170 92 127 84 84 127
127 127 127 127 135 135 139 139 178 139 139 139 139 139 139 139 139
139 139 143 143 143 143 143 143 143 143 143 143 143 143 143 