P2
13 13
255
148
148 148 148 148 148 148 148 148 148 148 148 148 152 169 44 0 44
133 214 250 214 178 178 152 152 156 129 137 178 137 57 89 201 209
178 178 156 156 160 169 178 178 178 178 169 161 169 178 178 160 160
165 131 127 127 127 127 131 135 131 127 127 165 165 169 131 127 127
127 127 131 135 131 127 127 169 169 160 169 178 178 178 205 197 133
141 178 178 160 160 165 142 125 76 125 174 93 13 45 76 76 165
165 169 93 210 255 210 93 21 49 76 76 76 169 169 148 161 169
178 129 80 129 178 178 178 178 148 148 152 133 44 0 44 133 178
178 178 178 178 152 152 156 156 197 156 156 156 156 156 156 156 156
156 156 160 160 160 160 160 160 160 160 160 160 160 160 160 