P2
13 13
255
15 15 15 15 15 15 15 15 15 15 15 15 15 
31 31 31 200 200 200 31 31 31 31 31 31 31 
47 47 200 47 47 47 200 200 47 47 47 47 47 
63 200 63 63 63 63 63 63 200 63 63 63 63 
79 200 79 79 79 79 79 79 200 79 79 79 79 
95 200 95 95 95 95 95 95 200 95 95 95 95 
63 200 63 63 63 63 63 63 200 63 63 63 63 
79 200 79 79 79 79 79 79 200 79 79 79 79 
95 200 95 95 95 95 95 200 95 95 95 95 95 
15 15 200 15 15 15 200 15 15 15 15 15 15 
31 31 31 200 200 200 31 31 31 31 31 31 31 
47 47 200 47 47 47 47 47 47 47 47 47 47 
63 63 63 63 63 63 63 63 63 63 63 63 63 
