P2
13 13
255
0
0 0 0 0 0 0 0 0 0 0 0 0 7 37 170 234 170
56 131 215 124 49 49 7 7 14 168 61 49 61 153 134 109 198
49 49 14 14 21 210 49 49 49 49 210 21 210 49 49 21 21
28 200 21 21 21 21 200 7 200 21 21 28 28 35 214 21 21
21 21 214 7 214 21 21 35 35 21 210 49 49 49 105 182 42
160 49 49 21 21 28 138 80 105 80 98 82 230 167 105 105 28
28 35 82 134 178 134 82 255 158 105 105 105 35 35 0 144 35
49 65 175 78 49 49 49 49 0 0 7 69 170 234 175 69 49
49 49 49 49 7 7 14 14 81 14 14 14 14 14 14 14 14
14 14 21 21 21 21 21 21 21 21 21 21 21 21 21 